<?xml version="1.0" standalone="no"?>
<!DOCTYPE svg PUBLIC "-//W3C//DTD SVG 20010904//EN"
 "http://www.w3.org/TR/2001/REC-SVG-20010904/DTD/svg10.dtd">
<svg version="1.0" xmlns="http://www.w3.org/2000/svg"
 width="164.000000pt" height="287.000000pt" viewBox="0 0 164.000000 287.000000"
 preserveAspectRatio="xMidYMid meet">

<g transform="translate(0.000000,287.000000) scale(0.100000,-0.100000)"
fill="#000000" stroke="none">
<path d="M741 2819 c-293 -38 -536 -229 -638 -500 -42 -111 -57 -211 -50 -324
8 -117 27 -190 81 -300 120 -244 358 -405 646 -437 l25 -3 3 -212 2 -213 -212
-2 -213 -3 -3 -27 c-2 -16 -2 -29 0 -30 2 -1 97 -4 213 -7 l210 -6 5 -340 c3
-187 9 -346 13 -353 10 -15 39 -16 54 -1 8 8 9 109 6 350 l-6 339 214 0 c118
0 220 4 227 9 8 4 12 19 10 32 -3 21 -10 25 -58 31 -30 3 -130 6 -222 7 l-168
1 0 210 c0 160 3 211 13 214 6 2 52 11 102 20 285 55 513 270 597 563 32 111
32 295 0 407 -28 96 -86 211 -147 288 -159 203 -449 321 -704 287z m263 -89
c259 -66 455 -261 523 -522 24 -95 22 -254 -6 -353 -58 -207 -188 -364 -376
-455 -203 -98 -423 -94 -635 12 -67 34 -103 61 -170 128 -94 94 -139 163 -176
269 -96 277 -16 573 208 768 173 151 414 209 632 153z"/>
</g>
</svg>
