<?xml version="1.0" standalone="no"?>
<!DOCTYPE svg PUBLIC "-//W3C//DTD SVG 20010904//EN"
 "http://www.w3.org/TR/2001/REC-SVG-20010904/DTD/svg10.dtd">
<svg version="1.0" xmlns="http://www.w3.org/2000/svg"
 width="193.000000pt" height="189.000000pt" viewBox="0 0 193.000000 189.000000"
 preserveAspectRatio="xMidYMid meet">

<g transform="translate(0.000000,189.000000) scale(0.100000,-0.100000)"
fill="#000000" stroke="none">
<path d="M1625 1814 c-99 -25 -196 -48 -215 -52 -27 -7 -34 -13 -32 -28 2 -10
5 -20 5 -21 1 -1 83 18 181 43 99 24 182 42 184 39 3 -3 -465 -474 -541 -544
l-26 -23 -41 35 c-54 46 -168 103 -250 124 -79 20 -242 23 -320 4 -83 -20
-212 -85 -279 -141 -246 -204 -311 -552 -158 -843 83 -158 266 -294 449 -332
313 -66 625 94 757 387 43 95 56 162 55 278 -1 158 -48 293 -140 407 -19 23
-34 44 -34 47 0 3 128 134 285 291 157 156 285 281 285 277 0 -4 -20 -88 -44
-187 -24 -99 -44 -181 -43 -182 1 0 10 -3 21 -5 16 -3 25 23 73 220 47 196 52
224 39 237 -18 18 2 21 -211 -31z m-741 -470 c33 -9 89 -31 125 -49 339 -174
450 -596 239 -910 -149 -225 -418 -330 -674 -265 -124 32 -198 73 -290 165
-89 88 -131 156 -164 261 -81 261 17 546 242 704 154 108 336 141 522 94z"/>
</g>
</svg>
